<?xml version="1.0" encoding="UTF-8" standalone="no"?>
<!DOCTYPE svg PUBLIC "-//W3C//DTD SVG 1.1//EN" "http://www.w3.org/Graphics/SVG/1.1/DTD/svg11.dtd">
<svg width="100px" height="100%" viewBox="0 0 162 171" version="1.1" xmlns="http://www.w3.org/2000/svg" xmlns:xlink="http://www.w3.org/1999/xlink" xml:space="preserve" style="fill-rule:evenodd;clip-rule:evenodd;stroke-linejoin:round;stroke-miterlimit:1.41421;">
    <g transform="matrix(1,0,0,1,-18.8797,-20.2924)">
        <g transform="matrix(1.78659,0,0,0.747645,0,0)">
            <g transform="matrix(2.15631,0,0,2.41791,-232.928,-615.332)">
                <g transform="matrix(0.0968746,0,0,0.206448,85.3151,228.966)">
                    <path d="M319.913,178L306.74,197.467L293.673,178L284.98,178L284.98,218L293.033,218L293.033,189.307L306.687,210.32L320.5,189.307L320.5,218L328.5,218L328.5,178L319.913,178Z" style="fill:white;fill-rule:nonzero;"/>
                </g>
                <g transform="matrix(0.0968746,0,0,0.206448,85.3151,228.966)">
                    <path d="M346.367,190.8C340.767,190.8 337.353,192.24 334.42,195.44L339.06,199.867C340.98,197.573 343.273,196.667 345.62,196.667C348.287,196.667 350.9,197.893 350.9,200.987L350.9,203.28L347.113,202.693C338.527,201.36 334.1,205.413 334.1,210.373C334.1,215.387 337.673,218.533 342.74,218.533C345.94,218.533 348.927,217.413 351.54,215.387L351.913,218L358.473,218L358.473,201.04C358.473,193.947 353.353,190.8 346.367,190.8ZM342.207,209.947C342.207,208.133 343.593,206.267 348.767,207.28L350.9,207.707L350.9,210.427C349.46,211.707 347.7,212.827 345.46,212.827C343.54,212.827 342.207,211.707 342.207,209.947Z" style="fill:white;fill-rule:nonzero;"/>
                </g>
                <g transform="matrix(0.0968746,0,0,0.206448,85.3151,228.966)">
                    <path d="M379.7,190.8C376.713,190.8 374.26,191.867 372.393,193.68L372.393,191.333L364.713,191.333L364.713,256.988L372.393,257.041L372.393,215.653C374.26,217.467 376.713,218.533 379.7,218.533C386.953,218.533 392.073,212.453 392.073,204.667C392.073,196.88 386.953,190.8 379.7,190.8ZM378.153,211.707C375.54,211.707 373.3,210 372.393,207.44L372.393,201.893C373.3,199.333 375.54,197.573 378.153,197.573C381.887,197.573 384.393,200.72 384.393,204.667C384.393,208.613 381.887,211.707 378.153,211.707Z" style="fill:white;fill-rule:nonzero;"/>
                </g>
                <g transform="matrix(0.0968746,0,0,0.206448,85.3151,228.966)">
                    <path d="M411.86,190.8C408.873,190.8 406.42,191.867 404.553,193.68L404.553,191.333L396.873,191.333L396.873,256.988L404.553,257.041L404.553,215.653C406.42,217.467 408.873,218.533 411.86,218.533C419.113,218.533 424.233,212.453 424.233,204.667C424.233,196.88 419.113,190.8 411.86,190.8ZM410.313,211.707C407.7,211.707 405.46,210 404.553,207.44L404.553,201.893C405.46,199.333 407.7,197.573 410.313,197.573C414.047,197.573 416.553,200.72 416.553,204.667C416.553,208.613 414.047,211.707 410.313,211.707Z" style="fill:white;fill-rule:nonzero;"/>
                </g>
                <g transform="matrix(0.0968746,0,0,0.206448,85.3151,228.966)">
                    <path d="M441.407,218.533C449.46,218.533 455.327,212.4 455.327,204.667C455.327,196.88 449.46,190.8 441.407,190.8C433.3,190.8 427.487,196.88 427.487,204.667C427.487,212.4 433.3,218.533 441.407,218.533ZM441.407,211.707C437.62,211.707 435.167,208.613 435.167,204.667C435.167,200.72 437.62,197.573 441.407,197.573C445.087,197.573 447.647,200.72 447.647,204.667C447.647,208.613 445.087,211.707 441.407,211.707Z" style="fill:white;fill-rule:nonzero;"/>
                </g>
            </g>
        </g>
        <g transform="matrix(1.78659,0,0,0.747645,0,0)">
            <g transform="matrix(0.559724,0,0,1.33753,-9.51369,-6.90302)">
                <path d="M197.732,195.842L92.943,195.842L54.487,133.772L110.989,122.477L114.405,115.747L116.321,64.439L197.732,195.842Z" style="fill:url(#_Linear1);"/>
            </g>
        </g>
        <g transform="matrix(1.78659,0,0,0.747645,0,0)">
            <g transform="matrix(0.204249,0,0,0.48808,-85.0213,-493.634)">
                <path d="M501.51,1332.87L527.503,1332.87L527.503,1207.43L587.439,1299.3L648.078,1207.43L648.078,1332.87L673.837,1332.87C639.268,1396.88 587.673,1454 587.673,1454C587.673,1454 536.079,1396.88 501.51,1332.87ZM492.149,1170.4L492.149,1314.43C479.609,1287.93 471,1261.09 471,1237.32C471,1212.44 478.827,1189.35 492.149,1170.4ZM683.197,1170.4C696.519,1189.35 704.346,1212.44 704.346,1237.32C704.346,1261.09 695.738,1287.93 683.197,1314.43L683.197,1170.4ZM502.183,1158C523.504,1135.04 553.939,1120.65 587.673,1120.65C621.407,1120.65 651.842,1135.04 673.163,1158L645.503,1158L587.673,1243.1L530.312,1158L502.183,1158Z" style="fill:white;"/>
            </g>
        </g>
    </g>
    <defs>
        <linearGradient id="_Linear1" x1="0" y1="0" x2="1" y2="0" gradientUnits="userSpaceOnUse" gradientTransform="matrix(121.888,-12.0472,5.80838,252.808,65.8713,134.651)"><stop offset="0" style="stop-color:rgb(51,51,51);stop-opacity:1"/><stop offset="1" style="stop-color:rgb(117,117,117);stop-opacity:0"/></linearGradient>
    </defs>
</svg>
